<svg width="113" height="29" viewBox="0 0 113 29" fill="none" xmlns="http://www.w3.org/2000/svg">
  <rect x="68.8" y="0.817245" width="44.1379" height="27.3655" rx="4.41379" fill="#0077FF"/>
  <path d="M0.584831 20.8172V6.50331H6.04646C7.48124 6.50331 8.76035 6.80787 9.88381 7.41697C11.0073 8.02607 11.8871 8.87205 12.5233 9.9549C13.1594 11.0378 13.4775 12.2695 13.4775 13.6501C13.4775 15.0308 13.1594 16.2693 12.5233 17.3657C11.8871 18.4485 11.0073 19.2945 9.88381 19.9036C8.76035 20.5127 7.48124 20.8172 6.04646 20.8172H0.584831ZM6.04646 18.5839C7.00749 18.5839 7.85347 18.3808 8.58439 17.9748C9.32885 17.5552 9.90411 16.9731 10.3102 16.2287C10.7298 15.4707 10.9396 14.6112 10.9396 13.6501C10.9396 12.6891 10.7298 11.8364 10.3102 11.0919C9.90411 10.3474 9.32885 9.77217 8.58439 9.3661C7.85347 8.9465 7.00749 8.73669 6.04646 8.73669H3.02125V18.5839H6.04646ZM25.9641 15.4165C25.9641 15.6196 25.9506 15.87 25.9235 16.1678H17.4367C17.545 16.9934 17.8834 17.6567 18.4519 18.1575C19.0204 18.6448 19.7445 18.8884 20.6243 18.8884C21.2199 18.8884 21.7546 18.7734 22.2283 18.5433C22.7156 18.3132 23.0878 18.0018 23.345 17.6093L25.5378 17.9748C25.1588 18.9493 24.5023 19.7006 23.5683 20.2284C22.6479 20.7563 21.6192 21.0203 20.4822 21.0203C19.4264 21.0203 18.4789 20.7902 17.6397 20.33C16.8141 19.8562 16.1643 19.2065 15.6906 18.3808C15.2304 17.5416 15.0003 16.5941 15.0003 15.5383C15.0003 14.4826 15.2304 13.5418 15.6906 12.7162C16.1643 11.877 16.8141 11.2272 17.6397 10.767C18.4789 10.2933 19.4264 10.0564 20.4822 10.0564C21.538 10.0564 22.4787 10.2933 23.3044 10.767C24.1436 11.2272 24.7933 11.8702 25.2535 12.6959C25.7273 13.508 25.9641 14.4149 25.9641 15.4165ZM20.4822 12.0868C19.7784 12.0868 19.1625 12.2898 18.6346 12.6959C18.1202 13.1019 17.7683 13.6501 17.5788 14.3404H23.4262C23.2232 13.6637 22.8577 13.1222 22.3298 12.7162C21.8155 12.2966 21.1996 12.0868 20.4822 12.0868ZM33.5342 20.8172H30.3262L26.4686 10.2595H28.9456L31.7678 18.259H32.1738L35.0772 10.2595H37.473L33.5342 20.8172ZM41.4225 20.8172H39.0876V10.2595H41.4225V20.8172ZM40.2652 8.757C39.8321 8.757 39.4802 8.62841 39.2094 8.37123C38.9387 8.10052 38.8034 7.75536 38.8034 7.33576C38.8034 6.91615 38.9387 6.57099 39.2094 6.30028C39.4937 6.02957 39.8456 5.89421 40.2652 5.89421C40.6848 5.89421 41.03 6.02957 41.3007 6.30028C41.5714 6.57099 41.7068 6.91615 41.7068 7.33576C41.7068 7.75536 41.5714 8.10052 41.3007 8.37123C41.03 8.62841 40.6848 8.757 40.2652 8.757ZM49.0542 21.0203C47.9985 21.0203 47.051 20.7902 46.2118 20.33C45.3725 19.8562 44.7161 19.2065 44.2423 18.3808C43.7821 17.5416 43.552 16.5941 43.552 15.5383C43.552 14.4826 43.7821 13.5418 44.2423 12.7162C44.7161 11.877 45.3725 11.2272 46.2118 10.767C47.051 10.2933 47.9985 10.0564 49.0542 10.0564C50.2183 10.0564 51.247 10.3474 52.1404 10.9295C53.0472 11.498 53.6902 12.3101 54.0692 13.3659L51.8764 13.7313C51.6463 13.2711 51.2876 12.8989 50.8003 12.6147C50.3266 12.3304 49.7919 12.1883 49.1964 12.1883C48.2489 12.1883 47.4773 12.4996 46.8818 13.1222C46.2862 13.7449 45.9884 14.5502 45.9884 15.5383C45.9884 16.5264 46.2862 17.3318 46.8818 17.9545C47.4773 18.5771 48.2489 18.8884 49.1964 18.8884C49.819 18.8884 50.374 18.7463 50.8612 18.462C51.3485 18.1643 51.714 17.7785 51.9576 17.3047L54.1504 17.6702C53.7714 18.7395 53.1149 19.5652 52.181 20.1472C51.247 20.7293 50.2048 21.0203 49.0542 21.0203ZM66.1348 15.4165C66.1348 15.6196 66.1213 15.87 66.0942 16.1678H57.6074C57.7157 16.9934 58.0541 17.6567 58.6226 18.1575C59.191 18.6448 59.9152 18.8884 60.795 18.8884C61.3906 18.8884 61.9252 18.7734 62.399 18.5433C62.8863 18.3132 63.2585 18.0018 63.5157 17.6093L65.7085 17.9748C65.3295 18.9493 64.673 19.7006 63.739 20.2284C62.8186 20.7563 61.7899 21.0203 60.6529 21.0203C59.5971 21.0203 58.6496 20.7902 57.8104 20.33C56.9847 19.8562 56.335 19.2065 55.8613 18.3808C55.4011 17.5416 55.171 16.5941 55.171 15.5383C55.171 14.4826 55.4011 13.5418 55.8613 12.7162C56.335 11.877 56.9847 11.2272 57.8104 10.767C58.6496 10.2933 59.5971 10.0564 60.6529 10.0564C61.7087 10.0564 62.6494 10.2933 63.4751 10.767C64.3143 11.2272 64.964 11.8702 65.4242 12.6959C65.898 13.508 66.1348 14.4149 66.1348 15.4165ZM60.6529 12.0868C59.949 12.0868 59.3332 12.2898 58.8053 12.6959C58.2909 13.1019 57.939 13.6501 57.7495 14.3404H63.5969C63.3939 13.6637 63.0284 13.1222 62.5005 12.7162C61.9862 12.2966 61.3703 12.0868 60.6529 12.0868Z" fill="black"/>
  <path d="M73.7522 20.8172V6.50331H76.0871V11.6401C76.4255 11.1393 76.8654 10.7535 77.4069 10.4828C77.9483 10.1985 78.5235 10.0564 79.1326 10.0564C79.8906 10.0564 80.5742 10.2459 81.1833 10.6249C81.7924 11.0039 82.2729 11.525 82.6248 12.1883C82.9768 12.8515 83.1527 13.6028 83.1527 14.442V20.8172H80.8178V14.7059C80.8178 13.9479 80.6013 13.332 80.1681 12.8583C79.735 12.3845 79.18 12.1477 78.5032 12.1477C77.7994 12.1477 77.2174 12.3913 76.7571 12.8786C76.3105 13.3523 76.0871 13.9614 76.0871 14.7059V20.8172H73.7522ZM89.5437 21.0203C88.7993 21.0203 88.1225 20.8308 87.5134 20.4518C86.9178 20.0728 86.4441 19.5517 86.0921 18.8884C85.7537 18.2252 85.5845 17.4739 85.5845 16.6347V10.2595H87.9194V16.3708C87.9194 17.1288 88.1292 17.7447 88.5488 18.2184C88.982 18.6922 89.5302 18.929 90.1934 18.929C90.8702 18.929 91.4319 18.6922 91.8786 18.2184C92.3253 17.7311 92.5486 17.1153 92.5486 16.3708V10.2595H94.8835V20.8172H93.1374L92.6704 19.2336C92.3321 19.7885 91.8854 20.2284 91.3304 20.5533C90.7755 20.8646 90.1799 21.0203 89.5437 21.0203ZM103.858 21.0203C102.978 21.0203 102.2 20.8375 101.523 20.4721C100.846 20.0931 100.291 19.6396 99.858 19.1118L99.3707 20.8172H97.6246V6.50331H99.9595V11.8634C100.379 11.3491 100.921 10.9227 101.584 10.5843C102.247 10.2324 103.005 10.0564 103.858 10.0564C104.846 10.0564 105.732 10.2933 106.518 10.767C107.303 11.2272 107.912 11.877 108.345 12.7162C108.792 13.5418 109.015 14.4826 109.015 15.5383C109.015 16.5941 108.792 17.5416 108.345 18.3808C107.912 19.2065 107.303 19.8562 106.518 20.33C105.732 20.7902 104.846 21.0203 103.858 21.0203ZM103.289 18.929C104.264 18.929 105.056 18.6177 105.665 17.9951C106.274 17.3589 106.578 16.54 106.578 15.5383C106.578 14.5367 106.274 13.7246 105.665 13.1019C105.056 12.4658 104.264 12.1477 103.289 12.1477C102.301 12.1477 101.496 12.4658 100.873 13.1019C100.264 13.7246 99.9595 14.5367 99.9595 15.5383C99.9595 16.54 100.264 17.3589 100.873 17.9951C101.496 18.6177 102.301 18.929 103.289 18.929Z" fill="white"/>
</svg>
