<svg width="512" height="512" viewBox="0 0 38 37" fill="none" xmlns="http://www.w3.org/2000/svg">
  <rect width="37" height="37" rx="3.79791" fill="#0077FF"/>
  <path d="M1.42124 24V9.68607H3.75614V14.8228C4.09453 14.322 4.53444 13.9363 5.07586 13.6655C5.61729 13.3813 6.19255 13.2392 6.80166 13.2392C7.55965 13.2392 8.2432 13.4287 8.8523 13.8077C9.46141 14.1867 9.94192 14.7078 10.2938 15.371C10.6458 16.0343 10.8217 16.7855 10.8217 17.6247V24H8.48684V17.8887C8.48684 17.1307 8.27027 16.5148 7.83713 16.041C7.40399 15.5673 6.84903 15.3304 6.17225 15.3304C5.4684 15.3304 4.88636 15.5741 4.42615 16.0614C3.97948 16.5351 3.75614 17.1442 3.75614 17.8887V24H1.42124ZM17.2127 24.203C16.4683 24.203 15.7915 24.0135 15.1824 23.6345C14.5868 23.2555 14.1131 22.7344 13.7611 22.0712C13.4227 21.4079 13.2536 20.6567 13.2536 19.8175V13.4422H15.5884V19.5535C15.5884 20.3115 15.7983 20.9274 16.2179 21.4012C16.651 21.8749 17.1992 22.1118 17.8624 22.1118C18.5392 22.1118 19.1009 21.8749 19.5476 21.4012C19.9943 20.9139 20.2176 20.298 20.2176 19.5535V13.4422H22.5525V24H20.8064L20.3395 22.4163C20.0011 22.9713 19.5544 23.4112 18.9994 23.7361C18.4445 24.0474 17.8489 24.203 17.2127 24.203ZM31.5268 24.203C30.647 24.203 29.8687 24.0203 29.1919 23.6548C28.5151 23.2758 27.9602 22.8224 27.527 22.2945L27.0398 24H25.2937V9.68607H27.6286V15.0462C28.0482 14.5318 28.5896 14.1055 29.2528 13.7671C29.9161 13.4151 30.6741 13.2392 31.5268 13.2392C32.5149 13.2392 33.4015 13.476 34.1866 13.9498C34.9716 14.41 35.5807 15.0597 36.0139 15.8989C36.4606 16.7246 36.6839 17.6653 36.6839 18.7211C36.6839 19.7769 36.4606 20.7244 36.0139 21.5636C35.5807 22.3893 34.9716 23.039 34.1866 23.5127C33.4015 23.9729 32.5149 24.203 31.5268 24.203ZM30.9583 22.1118C31.9329 22.1118 32.7247 21.8005 33.3338 21.1778C33.9429 20.5416 34.2475 19.7227 34.2475 18.7211C34.2475 17.7195 33.9429 16.9073 33.3338 16.2847C32.7247 15.6485 31.9329 15.3304 30.9583 15.3304C29.9702 15.3304 29.1648 15.6485 28.5422 16.2847C27.9331 16.9073 27.6286 17.7195 27.6286 18.7211C27.6286 19.7227 27.9331 20.5416 28.5422 21.1778C29.1648 21.8005 29.9702 22.1118 30.9583 22.1118Z" fill="white"/>
</svg>
