<svg width="489" height="155" viewBox="0 0 489 155" fill="none" xmlns="http://www.w3.org/2000/svg">
  <rect width="489" height="155" rx="17.66" fill="white"/>
  <rect x="293.952" y="24" width="176.552" height="109.462" rx="17.6552" fill="#0077FF"/>
  <path d="M42.9375 104H21.091V46.7443H42.9375C60.3173 46.7443 72.6618 58.6015 72.6618 75.3315C72.6618 92.1428 60.3173 104 42.9375 104ZM30.8367 55.6778V95.0665H42.9375C54.5511 95.0665 62.5101 87.0263 62.5101 75.3315C62.5101 63.718 54.5511 55.6778 42.9375 55.6778H30.8367ZM122.608 82.3971C122.608 83.5341 122.527 84.5087 122.446 85.402H88.4985C89.3918 91.8991 94.1022 96.2847 101.249 96.2847C106.203 96.2847 110.101 94.1731 112.132 91.1682L120.903 92.6301C117.735 100.67 109.452 104.812 100.681 104.812C87.8488 104.812 78.7528 95.635 78.7528 82.8844C78.7528 70.1338 87.8488 60.9567 100.681 60.9567C113.512 60.9567 122.608 70.2151 122.608 82.3971ZM100.681 69.0781C94.9956 69.0781 90.61 72.6515 89.067 78.0928H112.457C110.913 72.8139 106.528 69.0781 100.681 69.0781ZM152.888 104H140.057L124.626 61.7688H134.534L145.823 93.7671H147.447L159.061 61.7688H168.644L152.888 104ZM179.813 55.759C176.402 55.759 173.965 53.4038 173.965 50.074C173.965 46.7443 176.402 44.3079 179.813 44.3079C183.142 44.3079 185.579 46.7443 185.579 50.074C185.579 53.4038 183.142 55.759 179.813 55.759ZM184.442 104H175.102V61.7688H184.442V104ZM214.969 104.812C202.056 104.812 192.96 95.635 192.96 82.8844C192.96 70.1338 202.056 60.9567 214.969 60.9567C223.983 60.9567 231.942 65.5047 235.028 74.1945L226.257 75.6564C224.471 72.0018 220.41 69.4841 215.537 69.4841C207.984 69.4841 202.705 75.0067 202.705 82.8844C202.705 90.7622 207.984 96.2847 215.537 96.2847C220.572 96.2847 224.714 93.6858 226.582 89.95L235.353 91.4119C232.186 100.264 223.821 104.812 214.969 104.812ZM283.291 82.3971C283.291 83.5341 283.21 84.5087 283.129 85.402H249.181C250.075 91.8991 254.785 96.2847 261.932 96.2847C266.886 96.2847 270.784 94.1731 272.814 91.1682L281.586 92.6301C278.418 100.67 270.134 104.812 261.363 104.812C248.532 104.812 239.436 95.635 239.436 82.8844C239.436 70.1338 248.532 60.9567 261.363 60.9567C274.195 60.9567 283.291 70.2151 283.291 82.3971ZM261.363 69.0781C255.678 69.0781 251.293 72.6515 249.75 78.0928H273.139C271.596 72.8139 267.211 69.0781 261.363 69.0781Z" fill="black"/>
  <path d="M323.1 104H313.761V46.7443H323.1V67.2914C325.862 63.3119 330.409 60.9567 335.282 60.9567C344.459 60.9567 351.363 68.3471 351.363 78.4989V104H342.023V79.5546C342.023 73.5448 338.206 69.3217 332.765 69.3217C327.161 69.3217 323.1 73.5448 323.1 79.5546V104ZM376.927 104.812C367.912 104.812 361.09 97.4217 361.09 87.27V61.7688H370.429V86.2142C370.429 92.224 374.165 96.4471 379.525 96.4471C384.967 96.4471 388.946 92.224 388.946 86.2142V61.7688H398.286V104H391.301L389.434 97.6653C386.753 102.132 382.043 104.812 376.927 104.812ZM434.183 104.812C426.468 104.812 421.108 100.751 418.184 97.178L416.235 104H409.25V46.7443H418.59V68.1847C421.514 64.6925 426.792 60.9567 434.183 60.9567C446.284 60.9567 454.811 70.1338 454.811 82.8844C454.811 95.635 446.284 104.812 434.183 104.812ZM431.909 96.4471C439.705 96.4471 445.066 90.8434 445.066 82.8844C445.066 74.9255 439.705 69.3217 431.909 69.3217C424.031 69.3217 418.59 74.9255 418.59 82.8844C418.59 90.8434 424.031 96.4471 431.909 96.4471Z" fill="white"/>
</svg>
