<svg width="458" height="96" viewBox="0 0 458 96" fill="none" xmlns="http://www.w3.org/2000/svg">
  <rect x="303.062" y="0.180405" width="154.257" height="95.6392" rx="15.4257" fill="#0077FF"/>
  <path d="M34.3373 70.1804H0.915977V20.1549H33.6277V27.9603H9.43095V41.2295H31.357V48.6801H9.43095V62.375H34.3373V70.1804ZM42.8229 70.1804V33.2822H48.9253L50.4154 38.5331C51.4088 36.7828 52.7806 35.3636 54.5309 34.2756C56.2812 33.1403 58.3863 32.5726 60.8462 32.5726C63.3061 32.5726 65.5058 33.1639 67.4453 34.3465C69.3849 35.5292 70.8277 37.1612 71.7738 39.2427C72.6726 37.3977 74.0917 35.8367 76.0313 34.5594C78.0181 33.2349 80.3597 32.5726 83.0561 32.5726C85.6106 32.5726 87.8813 33.2349 89.8681 34.5594C91.9022 35.8367 93.4633 37.6343 94.5513 39.9522C95.6867 42.2229 96.2543 44.8247 96.2543 47.7576V70.1804H88.0941V48.5382C88.0941 45.9837 87.4319 43.9022 86.1073 42.2939C84.7828 40.6855 83.0561 39.8813 80.9274 39.8813C78.7986 39.8813 77.0483 40.7091 75.6765 42.3648C74.3046 43.9732 73.6187 46.031 73.6187 48.5382V70.1804H65.4585V48.5382C65.4585 45.9837 64.7962 43.9022 63.4717 42.2939C62.1471 40.6855 60.4205 39.8813 58.2917 39.8813C56.163 39.8813 54.4127 40.7091 53.0408 42.3648C51.669 43.9732 50.983 46.031 50.983 48.5382V70.1804H42.8229ZM118.601 70.89C115.999 70.89 113.634 70.2277 111.505 68.9032C109.424 67.5786 107.768 65.7573 106.538 63.4394C105.356 61.1214 104.764 58.496 104.764 55.563V33.2822H112.925V54.6406C112.925 57.2897 113.658 59.4421 115.124 61.0978C116.638 62.7535 118.554 63.5813 120.872 63.5813C123.237 63.5813 125.2 62.7535 126.761 61.0978C128.322 59.3948 129.103 57.2424 129.103 54.6406V33.2822H137.263V70.1804H131.161L129.529 64.6457C128.346 66.5852 126.785 68.1226 124.845 69.2579C122.906 70.346 120.825 70.89 118.601 70.89ZM155.003 70.1804H146.843V20.1549H155.003V70.1804ZM179.617 32.5726C184.348 32.5726 188.061 34.0627 190.758 37.043C193.502 39.9759 194.873 44.1151 194.873 49.4606V70.1804H188.842L187.139 64.3618C186.098 66.1121 184.561 67.6496 182.527 68.9741C180.493 70.2514 178.08 70.89 175.289 70.89C172.829 70.89 170.606 70.3933 168.619 69.3999C166.679 68.4065 165.166 67.0109 164.078 65.2133C162.99 63.4157 162.446 61.3816 162.446 59.1109C162.446 55.6103 163.817 52.8193 166.561 50.7379C169.352 48.6091 173.397 47.5448 178.695 47.5448H186.642C186.453 45.0849 185.696 43.1454 184.372 41.7262C183.094 40.2597 181.368 39.5265 179.192 39.5265C177.441 39.5265 175.928 39.9522 174.65 40.8037C173.373 41.6552 172.427 42.696 171.812 43.9259L164.29 42.6486C165.189 39.5265 167.034 37.0666 169.825 35.269C172.663 33.4714 175.928 32.5726 179.617 32.5726ZM177.205 64.007C180.043 64.007 182.337 63.0846 184.088 61.2397C185.838 59.3948 186.713 56.9585 186.713 53.931H178.979C173.444 53.931 170.677 55.5394 170.677 58.7561C170.677 60.3645 171.268 61.6418 172.451 62.5879C173.633 63.534 175.218 64.007 177.205 64.007ZM225.723 63.0846L225.013 70.1804H218.13C214.11 70.1804 211.058 69.2343 208.977 67.3421C206.895 65.4026 205.855 62.6115 205.855 58.969V40.378H199.823V33.2822H205.855L207.913 22.6385H214.015V33.2822H225.013V40.378H214.015V58.969C214.015 61.7127 215.387 63.0846 218.13 63.0846H225.723ZM249.042 70.89C245.257 70.89 241.851 70.0858 238.824 68.4774C235.843 66.8217 233.502 64.5511 231.799 61.6654C230.143 58.7325 229.315 55.4211 229.315 51.7313C229.315 48.0415 230.143 44.7537 231.799 41.8681C233.502 38.9352 235.843 36.6645 238.824 35.0561C241.851 33.4004 245.257 32.5726 249.042 32.5726C252.826 32.5726 256.208 33.4004 259.189 35.0561C262.216 36.6645 264.558 38.9352 266.213 41.8681C267.916 44.7537 268.768 48.0415 268.768 51.7313C268.768 55.4211 267.916 58.7325 266.213 61.6654C264.558 64.5511 262.216 66.8217 259.189 68.4774C256.208 70.0858 252.826 70.89 249.042 70.89ZM249.042 63.4394C252.353 63.4394 255.049 62.375 257.131 60.2463C259.212 58.0702 260.253 55.2319 260.253 51.7313C260.253 48.2307 259.212 45.416 257.131 43.2873C255.049 41.1112 252.353 40.0232 249.042 40.0232C245.73 40.0232 243.034 41.1112 240.952 43.2873C238.871 45.416 237.83 48.2307 237.83 51.7313C237.83 55.2319 238.871 58.0702 240.952 60.2463C243.034 62.375 245.73 63.4394 249.042 63.4394ZM275.862 70.1804V33.2822H281.965L283.526 38.604C284.708 36.6645 286.104 35.2927 287.712 34.4885C289.368 33.6843 291.355 33.2822 293.673 33.2822H295.234L295.943 41.0876H291.26C286.435 41.0876 284.022 43.5238 284.022 48.3963V70.1804H275.862Z" fill="black"/>
  <path d="M320.37 70.1804V20.1549H328.53V38.1073C329.712 36.357 331.25 35.0088 333.142 34.0627C335.034 33.0693 337.045 32.5726 339.174 32.5726C341.823 32.5726 344.212 33.2349 346.34 34.5594C348.469 35.884 350.148 37.7052 351.378 40.0232C352.608 42.3412 353.223 44.9666 353.223 47.8995V70.1804H345.063V48.822C345.063 46.1729 344.306 44.0205 342.792 42.3648C341.279 40.7091 339.339 39.8813 336.974 39.8813C334.514 39.8813 332.48 40.7328 330.871 42.4358C329.31 44.0915 328.53 46.2202 328.53 48.822V70.1804H320.37ZM375.559 70.89C372.957 70.89 370.592 70.2277 368.463 68.9032C366.382 67.5786 364.726 65.7573 363.496 63.4394C362.313 61.1214 361.722 58.496 361.722 55.563V33.2822H369.882V54.6406C369.882 57.2897 370.616 59.4421 372.082 61.0978C373.596 62.7535 375.512 63.5813 377.83 63.5813C380.195 63.5813 382.158 62.7535 383.719 61.0978C385.28 59.3948 386.061 57.2424 386.061 54.6406V33.2822H394.221V70.1804H388.119L386.487 64.6457C385.304 66.5852 383.743 68.1226 381.803 69.2579C379.864 70.346 377.782 70.89 375.559 70.89ZM425.585 70.89C422.51 70.89 419.79 70.2514 417.425 68.9741C415.06 67.6496 413.12 66.0648 411.606 64.2199L409.903 70.1804H403.801V20.1549H411.961V38.8879C413.428 37.0903 415.32 35.6001 417.638 34.4175C419.956 33.1876 422.605 32.5726 425.585 32.5726C429.038 32.5726 432.137 33.4004 434.881 35.0561C437.624 36.6645 439.753 38.9352 441.267 41.8681C442.828 44.7537 443.608 48.0415 443.608 51.7313C443.608 55.4211 442.828 58.7325 441.267 61.6654C439.753 64.5511 437.624 66.8217 434.881 68.4774C432.137 70.0858 429.038 70.89 425.585 70.89ZM423.598 63.5813C427.004 63.5813 429.772 62.4933 431.9 60.3172C434.029 58.0939 435.093 55.2319 435.093 51.7313C435.093 48.2307 434.029 45.3924 431.9 43.2163C429.772 40.993 427.004 39.8813 423.598 39.8813C420.145 39.8813 417.33 40.993 415.154 43.2163C413.025 45.3924 411.961 48.2307 411.961 51.7313C411.961 55.2319 413.025 58.0939 415.154 60.3172C417.33 62.4933 420.145 63.5813 423.598 63.5813Z" fill="white"/>
</svg>
